<svg width="16" height="12" viewBox="0 0 16 12" fill="none" xmlns="http://www.w3.org/2000/svg">
<path fill-rule="evenodd" clip-rule="evenodd" d="M13.6328 0.134446C13.8079 0.0633918 13.9996 0.0388857 14.1878 0.063478C14.3761 0.0880704 14.5541 0.160862 14.7033 0.274277C14.8525 0.387692 14.9675 0.537584 15.0362 0.708351C15.1049 0.879119 15.1249 1.06452 15.094 1.24525L13.4868 10.6434C13.3309 11.5499 12.2991 12.0698 11.4366 11.6183C10.7152 11.2405 9.64369 10.6584 8.67991 10.0511C8.19802 9.7471 6.72188 8.77361 6.9033 8.08089C7.05921 7.4886 9.53952 5.26288 10.9568 3.93961C11.5131 3.41973 11.2594 3.11983 10.6025 3.59804C8.97118 4.78536 6.35196 6.59093 5.48597 7.0992C4.72204 7.54735 4.32377 7.62386 3.84755 7.54735C2.97873 7.40798 2.17298 7.19211 1.51534 6.92909C0.626678 6.57385 0.669907 5.3961 1.51463 5.05315L13.6328 0.134446Z" fill="#000D2F"/>
</svg>
